<?xml version="1.0" encoding="UTF-8"?><svg id="Layer_1" xmlns="http://www.w3.org/2000/svg" viewBox="0 0 108.77 36.77">
  <path d="M7.66992 17.3145C6.48698 17.3145 5.42383 17.1235 4.48047 16.7417C3.5446 16.3524 2.74349 15.7909 2.07715 15.0571C1.41829 14.3159 0.90918 13.425 0.549805 12.3843C0.197917 11.3361 0.0219727 10.1606 0.0219727 8.85791V8.83545C0.0219727 7.12093 0.332682 5.63851 0.954102 4.38818C1.57552 3.13786 2.45524 2.17578 3.59326 1.50195C4.73128 0.820638 6.0752 0.47998 7.625 0.47998C8.8903 0.47998 10.0059 0.70459 10.9717 1.15381C11.945 1.60303 12.7386 2.2207 13.3525 3.00684C13.974 3.79297 14.382 4.69515 14.5767 5.71338L14.6104 5.87061H11.7017L11.6567 5.7583C11.3647 4.87484 10.8706 4.19352 10.1743 3.71436C9.48551 3.2277 8.63574 2.98438 7.625 2.98438C6.66667 2.98438 5.83936 3.21647 5.14307 3.68066C4.44678 4.14486 3.90771 4.81494 3.52588 5.69092C3.15153 6.55941 2.96436 7.60384 2.96436 8.82422V8.83545C2.96436 9.76383 3.07292 10.5986 3.29004 11.3398C3.51465 12.0736 3.83285 12.6987 4.24463 13.2153C4.65641 13.7319 5.1543 14.1287 5.73828 14.4058C6.32227 14.6753 6.97738 14.8101 7.70361 14.8101C8.52718 14.8101 9.24967 14.6528 9.87109 14.3384C10.5 14.0239 10.9904 13.5822 11.3423 13.0132C11.7017 12.4367 11.8888 11.7703 11.9038 11.0142L11.915 10.7334H7.92822V8.49854H14.7451V10.3291C14.7451 11.4147 14.5841 12.388 14.2622 13.249C13.9403 14.11 13.4723 14.8438 12.8584 15.4502C12.2445 16.0566 11.4995 16.5208 10.6235 16.8428C9.75505 17.1572 8.77051 17.3145 7.66992 17.3145ZM22.5615 17V0.794434H25.4478V7.53271H33.3315V0.794434H36.229V17H33.3315V9.96973H25.4478V17H22.5615ZM43.439 17L49.2227 0.794434H51.6484V3.71436H50.7949L46.4712 17H43.439ZM46.3701 12.811L47.1338 10.5762H54.5571L55.332 12.811H46.3701ZM55.2197 17L50.9072 3.71436V0.794434H52.4795L58.2632 17H55.2197ZM65.4619 17V0.794434H71.9531C73.1061 0.794434 74.0981 1.00033 74.9292 1.41211C75.7603 1.81641 76.4004 2.39665 76.8496 3.15283C77.2988 3.90902 77.5234 4.80745 77.5234 5.84814V5.87061C77.5234 6.94873 77.2502 7.90332 76.7036 8.73438C76.1571 9.55794 75.4121 10.1419 74.4688 10.4863L78.0063 17H74.7046L71.5151 10.9243C71.4927 10.9243 71.4665 10.9243 71.4365 10.9243C71.4141 10.9243 71.3916 10.9243 71.3691 10.9243H68.3481V17H65.4619ZM68.3481 8.65576H71.6499C72.5708 8.65576 73.2858 8.41618 73.7949 7.93701C74.304 7.45036 74.5586 6.77279 74.5586 5.9043V5.88184C74.5586 5.02832 74.2928 4.35824 73.7612 3.87158C73.2297 3.37744 72.5072 3.13037 71.5938 3.13037H68.3481V8.65576ZM86.1147 11.5981L85.8789 0.794434H88.8213L88.5967 11.5981H86.1147ZM87.3501 17.1797C86.8634 17.1797 86.4554 17.0262 86.126 16.7192C85.804 16.4048 85.6431 16.008 85.6431 15.5288C85.6431 15.0571 85.804 14.6678 86.126 14.3608C86.4554 14.0464 86.8634 13.8892 87.3501 13.8892C87.8442 13.8892 88.2523 14.0464 88.5742 14.3608C88.8962 14.6678 89.0571 15.0571 89.0571 15.5288C89.0571 16.008 88.8962 16.4048 88.5742 16.7192C88.2523 17.0262 87.8442 17.1797 87.3501 17.1797ZM101.658 17V3.23145H96.7612V0.794434H109.44V3.23145H104.544V17H101.658Z" fill="white"/>
</svg>